<?xml version="1.0" encoding="UTF-8" standalone="no"?>
<!DOCTYPE svg PUBLIC "-//W3C//DTD SVG 20010904//EN"
              "http://www.w3.org/TR/2001/REC-SVG-20010904/DTD/svg10.dtd">

<svg xmlns="http://www.w3.org/2000/svg"
     width="11.5972in" height="11.5972in"
     viewBox="0 0 835 835">
  <path id="Selection"
        fill="none" stroke="black" stroke-width="1"
        d="M 324.12,146.00
           C 324.12,146.00 324.12,134.17 324.12,134.17
             324.12,134.17 325.87,127.96 325.87,127.96
             325.87,127.96 327.11,109.09 327.11,109.09
             327.11,109.09 328.74,102.91 328.74,102.91
             328.74,102.91 329.26,95.00 329.26,95.00
             329.26,95.00 330.74,89.00 330.74,89.00
             331.74,82.89 331.01,68.80 333.41,63.75
             335.30,59.79 338.65,57.05 341.71,54.00
             349.39,46.33 351.49,42.02 363.00,42.00
             363.00,42.00 482.00,42.00 482.00,42.00
             494.51,42.02 496.55,47.48 504.56,55.71
             507.66,58.90 509.49,59.40 511.60,63.80
             513.98,68.75 513.27,82.97 514.26,89.00
             514.26,89.00 515.87,96.00 515.87,96.00
             515.87,96.00 517.26,115.91 517.26,115.91
             517.26,115.91 518.95,121.17 518.95,121.17
             518.95,121.17 518.95,127.96 518.95,127.96
             518.95,127.96 520.88,134.17 520.88,134.17
             520.88,134.17 520.88,146.00 520.88,146.00
             525.45,146.29 535.58,151.20 540.09,153.28
             554.42,159.92 571.51,168.91 584.26,178.13
             584.26,178.13 600.72,190.05 600.72,190.05
             602.79,191.47 604.99,193.86 607.72,193.03
             607.72,193.03 613.18,189.83 613.18,189.83
             613.18,189.83 619.70,188.22 619.70,188.22
             619.70,188.22 625.30,185.15 625.30,185.15
             625.30,185.15 636.85,180.83 636.85,180.83
             636.85,180.83 659.84,170.69 659.84,170.69
             659.84,170.69 675.17,163.82 675.17,163.82
             675.17,163.82 680.83,162.55 680.83,162.55
             682.64,162.06 684.04,161.23 686.00,161.23
             686.00,161.23 694.01,163.23 694.01,163.23
             698.94,164.19 709.78,166.12 713.51,169.13
             716.93,171.89 718.98,177.11 720.84,180.95
             720.84,180.95 728.94,194.92 728.94,194.92
             728.94,194.92 767.52,260.88 767.52,260.88
             772.25,268.55 775.48,278.64 782.00,285.00
             781.28,294.22 779.76,295.09 777.96,303.04
             777.30,305.95 775.01,315.33 773.59,317.48
             771.20,321.08 765.84,323.40 762.38,326.18
             762.38,326.18 756.49,331.37 756.49,331.37
             756.49,331.37 749.82,335.27 749.82,335.27
             749.82,335.27 738.50,344.64 738.50,344.64
             738.50,344.64 730.33,349.84 730.33,349.84
             730.33,349.84 724.58,355.25 724.58,355.25
             720.35,358.23 717.83,357.43 716.00,363.00
             716.00,363.00 705.00,367.00 705.00,367.00
             705.00,367.00 706.76,375.17 706.76,375.17
             706.76,375.17 708.00,394.00 708.00,394.00
             708.00,394.00 708.00,441.00 708.00,441.00
             708.00,441.00 706.76,459.83 706.76,459.83
             706.76,459.83 705.00,468.00 705.00,468.00
             705.00,468.00 716.00,472.00 716.00,472.00
             717.83,477.57 720.35,476.77 724.58,479.75
             724.58,479.75 730.33,485.16 730.33,485.16
             730.33,485.16 738.50,490.36 738.50,490.36
             738.50,490.36 749.82,499.73 749.82,499.73
             749.82,499.73 756.49,503.63 756.49,503.63
             756.49,503.63 762.38,508.82 762.38,508.82
             765.84,511.60 771.20,513.92 773.59,517.52
             775.01,519.67 777.30,529.05 777.96,531.96
             779.75,539.85 781.37,540.86 782.00,550.00
             775.48,556.36 772.25,566.45 767.52,574.12
             767.52,574.12 728.94,640.08 728.94,640.08
             728.94,640.08 720.84,654.05 720.84,654.05
             718.98,657.89 716.93,663.11 713.51,665.87
             710.49,668.31 700.12,670.74 696.00,671.42
             696.00,671.42 686.00,673.77 686.00,673.77
             680.59,673.77 666.81,667.54 661.58,665.09
             661.58,665.09 654.44,662.39 654.44,662.39
             654.44,662.39 642.75,656.72 642.75,656.72
             642.75,656.72 626.17,650.20 626.17,650.20
             626.17,650.20 619.70,646.78 619.70,646.78
             619.70,646.78 613.44,644.70 613.44,644.70
             611.32,643.64 608.58,641.43 606.09,641.77
             604.49,641.99 601.38,644.46 599.91,645.48
             599.91,645.48 583.50,657.42 583.50,657.42
             569.89,666.80 555.08,674.77 540.09,681.72
             535.58,683.80 525.45,688.71 520.88,689.00
             520.88,689.00 520.88,700.83 520.88,700.83
             520.88,700.83 518.95,707.04 518.95,707.04
             518.95,707.04 518.95,713.83 518.95,713.83
             518.95,713.83 517.26,719.09 517.26,719.09
             517.26,719.09 515.87,739.00 515.87,739.00
             515.87,739.00 514.26,746.00 514.26,746.00
             513.27,752.03 513.98,766.25 511.60,771.20
             509.49,775.60 507.66,776.10 504.56,779.29
             496.55,787.52 494.51,792.98 482.00,793.00
             482.00,793.00 363.00,793.00 363.00,793.00
             351.49,792.98 349.39,788.67 341.71,781.00
             338.65,777.95 335.30,775.21 333.41,771.25
             331.01,766.20 331.74,752.11 330.74,746.00
             330.74,746.00 329.26,740.00 329.26,740.00
             329.26,740.00 328.74,732.09 328.74,732.09
             328.74,732.09 327.11,725.91 327.11,725.91
             327.11,725.91 325.87,707.04 325.87,707.04
             325.87,707.04 324.12,700.83 324.12,700.83
             324.12,700.83 324.12,689.00 324.12,689.00
             318.86,688.67 302.59,680.92 297.53,678.07
             297.53,678.07 290.65,674.97 290.65,674.97
             290.65,674.97 262.00,657.97 262.00,657.97
             262.00,657.97 246.53,646.94 246.53,646.94
             244.58,645.30 240.50,641.59 238.00,641.54
             235.60,641.50 233.54,643.47 231.54,644.53
             231.54,644.53 219.71,649.74 219.71,649.74
             219.71,649.74 210.04,653.30 210.04,653.30
             210.04,653.30 191.39,661.99 191.39,661.99
             191.39,661.99 184.28,664.60 184.28,664.60
             178.98,667.09 164.46,673.77 159.00,673.77
             159.00,673.77 149.00,671.42 149.00,671.42
             144.73,670.72 134.73,668.33 131.47,665.91
             128.21,663.48 125.91,657.91 123.71,654.39
             123.71,654.39 117.93,643.47 117.93,643.47
             117.93,643.47 108.22,627.41 108.22,627.41
             108.22,627.41 105.20,621.28 105.20,621.28
             105.20,621.28 78.42,575.92 78.42,575.92
             78.42,575.92 74.12,567.37 74.12,567.37
             71.24,562.80 62.54,550.11 63.25,545.15
             63.83,541.09 69.45,520.49 71.41,517.52
             74.11,513.45 79.66,511.01 83.35,508.03
             83.35,508.03 88.51,503.62 88.51,503.62
             88.51,503.62 93.54,500.79 93.54,500.79
             93.54,500.79 98.74,496.17 98.74,496.17
             98.74,496.17 114.50,484.83 114.50,484.83
             114.50,484.83 120.46,479.63 120.46,479.63
             120.46,479.63 125.75,476.26 125.75,476.26
             130.95,472.21 132.86,469.50 140.00,468.00
             140.00,468.00 138.24,459.83 138.24,459.83
             138.24,459.83 136.00,434.00 136.00,434.00
             136.00,434.00 136.00,401.00 136.00,401.00
             136.00,401.00 138.24,375.17 138.24,375.17
             138.24,375.17 140.00,367.00 140.00,367.00
             132.86,365.50 130.95,362.79 125.75,358.74
             125.75,358.74 120.46,355.37 120.46,355.37
             120.46,355.37 114.50,350.17 114.50,350.17
             114.50,350.17 99.50,339.49 99.50,339.49
             99.50,339.49 93.54,334.21 93.54,334.21
             93.54,334.21 88.51,331.38 88.51,331.38
             88.51,331.38 83.35,326.97 83.35,326.97
             79.66,323.99 74.11,321.55 71.41,317.48
             69.57,314.70 65.76,300.81 65.11,297.01
             64.56,293.76 62.77,290.22 63.25,287.15
             63.99,282.45 72.03,271.51 74.60,266.81
             74.60,266.81 76.99,261.59 76.99,261.59
             76.99,261.59 87.72,243.85 87.72,243.85
             87.72,243.85 105.20,213.72 105.20,213.72
             105.20,213.72 108.94,205.92 108.94,205.92
             108.94,205.92 117.93,191.53 117.93,191.53
             117.93,191.53 123.40,181.44 123.40,181.44
             125.59,177.69 128.03,171.65 131.47,169.09
             134.73,166.67 144.73,164.28 149.00,163.58
             149.00,163.58 159.00,161.23 159.00,161.23
             164.46,161.23 178.98,167.91 184.28,170.40
             184.28,170.40 191.39,173.01 191.39,173.01
             191.39,173.01 218.83,184.93 218.83,184.93
             218.83,184.93 231.54,190.47 231.54,190.47
             233.85,191.69 236.00,193.92 238.86,193.36
             241.13,192.92 246.04,188.38 248.00,186.77
             248.00,186.77 262.00,177.03 262.00,177.03
             270.89,170.55 280.97,165.20 290.65,160.03
             290.65,160.03 297.53,156.93 297.53,156.93
             302.59,154.08 318.86,146.33 324.12,146.00 Z
           M 421.25,328.47
           C 421.25,328.47 396.17,332.95 396.17,332.95
             386.70,335.90 375.53,341.35 367.90,347.79
             367.90,347.79 359.29,356.42 359.29,356.42
             359.29,356.42 351.61,364.37 351.61,364.37
             351.61,364.37 341.68,380.46 341.68,380.46
             341.68,380.46 339.35,387.71 339.35,387.71
             339.35,387.71 336.22,396.17 336.22,396.17
             336.22,396.17 334.95,409.99 334.95,409.99
             334.60,414.68 332.89,415.45 333.47,418.75
             333.47,418.75 334.87,424.04 334.87,424.04
             334.87,424.04 336.42,439.71 336.42,439.71
             336.42,439.71 339.70,448.17 339.70,448.17
             339.70,448.17 341.68,454.54 341.68,454.54
             346.10,464.76 353.69,472.97 361.42,480.71
             361.42,480.71 368.66,487.83 368.66,487.83
             376.53,493.89 387.50,499.82 397.09,502.31
             397.09,502.31 410.00,505.07 410.00,505.07
             410.00,505.07 416.91,505.07 416.91,505.07
             416.91,505.07 421.25,506.53 421.25,506.53
             424.11,507.03 425.42,505.74 428.09,505.07
             428.09,505.07 435.00,505.07 435.00,505.07
             435.00,505.07 442.00,503.22 442.00,503.22
             461.92,499.08 472.29,492.24 486.42,477.85
             492.32,471.84 497.76,465.22 501.45,457.57
             501.45,457.57 503.71,451.29 503.71,451.29
             503.71,451.29 506.93,443.83 506.93,443.83
             506.93,443.83 508.25,436.09 508.25,436.09
             508.25,436.09 510.01,430.83 510.01,430.83
             510.01,430.83 510.01,423.09 510.01,423.09
             510.74,420.42 512.03,419.11 511.53,416.25
             511.53,416.25 510.01,411.91 510.01,411.91
             510.01,411.91 510.01,404.17 510.01,404.17
             510.01,404.17 508.25,398.91 508.25,398.91
             508.25,398.91 506.93,391.17 506.93,391.17
             506.93,391.17 501.45,377.43 501.45,377.43
             497.76,369.78 492.32,363.16 486.42,357.15
             486.42,357.15 477.11,347.93 477.11,347.93
             463.99,336.91 446.83,331.18 430.01,329.95
             425.87,329.64 425.46,328.27 421.25,328.47 Z" />
</svg>
