<?xml version="1.0" encoding="UTF-8" standalone="no"?>
<svg
   width="11.5972in"
   height="11.5972in"
   viewBox="0 0 835 835"
   version="1.1"
   id="svg96"
   sodipodi:docname="gear2.svg"
   inkscape:version="1.1.2 (b8e25be8, 2022-02-05)"
   xmlns:inkscape="http://www.inkscape.org/namespaces/inkscape"
   xmlns:sodipodi="http://sodipodi.sourceforge.net/DTD/sodipodi-0.dtd"
   xmlns="http://www.w3.org/2000/svg"
   xmlns:svg="http://www.w3.org/2000/svg">
  <defs
     id="defs100" />
  <sodipodi:namedview
     id="namedview98"
     pagecolor="#ffffff"
     bordercolor="#666666"
     borderopacity="1.0"
     inkscape:pageshadow="2"
     inkscape:pageopacity="0.0"
     inkscape:pagecheckerboard="0"
     inkscape:document-units="in"
     showgrid="false"
     inkscape:zoom="0.6458096"
     inkscape:cx="370.85234"
     inkscape:cy="575.24695"
     inkscape:window-width="1296"
     inkscape:window-height="969"
     inkscape:window-x="134"
     inkscape:window-y="822"
     inkscape:window-maximized="0"
     inkscape:current-layer="svg96" />
  <path
     id="Selection"
     fill="none"
     stroke="black"
     stroke-width="1"
     d="M 324.12,146.00            C 324.12,146.00 324.12,134.17 324.12,134.17              324.12,134.17 325.87,127.96 325.87,127.96              325.87,127.96 327.11,109.09 327.11,109.09              327.11,109.09 328.74,102.91 328.74,102.91              328.74,102.91 329.26,95.00 329.26,95.00              329.26,95.00 330.74,89.00 330.74,89.00              331.74,82.89 331.01,68.80 333.41,63.75              335.30,59.79 338.65,57.05 341.71,54.00              349.39,46.33 351.49,42.02 363.00,42.00              363.00,42.00 482.00,42.00 482.00,42.00              494.51,42.02 496.55,47.48 504.56,55.71              507.66,58.90 509.49,59.40 511.60,63.80              513.98,68.75 513.27,82.97 514.26,89.00              514.26,89.00 515.87,96.00 515.87,96.00              515.87,96.00 517.26,115.91 517.26,115.91              517.26,115.91 518.95,121.17 518.95,121.17              518.95,121.17 518.95,127.96 518.95,127.96              518.95,127.96 520.88,134.17 520.88,134.17              520.88,134.17 520.88,146.00 520.88,146.00              525.45,146.29 535.58,151.20 540.09,153.28              554.42,159.92 571.51,168.91 584.26,178.13              584.26,178.13 600.72,190.05 600.72,190.05              602.79,191.47 604.99,193.86 607.72,193.03              607.72,193.03 613.18,189.83 613.18,189.83              613.18,189.83 619.70,188.22 619.70,188.22              619.70,188.22 625.30,185.15 625.30,185.15              625.30,185.15 636.85,180.83 636.85,180.83              636.85,180.83 659.84,170.69 659.84,170.69              659.84,170.69 675.17,163.82 675.17,163.82              675.17,163.82 680.83,162.55 680.83,162.55              682.64,162.06 684.04,161.23 686.00,161.23              686.00,161.23 694.01,163.23 694.01,163.23              698.94,164.19 709.78,166.12 713.51,169.13              716.93,171.89 718.98,177.11 720.84,180.95              720.84,180.95 728.94,194.92 728.94,194.92              728.94,194.92 767.52,260.88 767.52,260.88              772.25,268.55 775.48,278.64 782.00,285.00              781.28,294.22 779.76,295.09 777.96,303.04              777.30,305.95 775.01,315.33 773.59,317.48              771.20,321.08 765.84,323.40 762.38,326.18              762.38,326.18 756.49,331.37 756.49,331.37              756.49,331.37 749.82,335.27 749.82,335.27              749.82,335.27 738.50,344.64 738.50,344.64              738.50,344.64 730.33,349.84 730.33,349.84              730.33,349.84 724.58,355.25 724.58,355.25              720.35,358.23 717.83,357.43 716.00,363.00              716.00,363.00 705.00,367.00 705.00,367.00              705.00,367.00 706.76,375.17 706.76,375.17              706.76,375.17 708.00,394.00 708.00,394.00              708.00,394.00 708.00,441.00 708.00,441.00              708.00,441.00 706.76,459.83 706.76,459.83              706.76,459.83 705.00,468.00 705.00,468.00              705.00,468.00 716.00,472.00 716.00,472.00              717.83,477.57 720.35,476.77 724.58,479.75              724.58,479.75 730.33,485.16 730.33,485.16              730.33,485.16 738.50,490.36 738.50,490.36              738.50,490.36 749.82,499.73 749.82,499.73              749.82,499.73 756.49,503.63 756.49,503.63              756.49,503.63 762.38,508.82 762.38,508.82              765.84,511.60 771.20,513.92 773.59,517.52              775.01,519.67 777.30,529.05 777.96,531.96              779.75,539.85 781.37,540.86 782.00,550.00              775.48,556.36 772.25,566.45 767.52,574.12              767.52,574.12 728.94,640.08 728.94,640.08              728.94,640.08 720.84,654.05 720.84,654.05              718.98,657.89 716.93,663.11 713.51,665.87              710.49,668.31 700.12,670.74 696.00,671.42              696.00,671.42 686.00,673.77 686.00,673.77              680.59,673.77 666.81,667.54 661.58,665.09              661.58,665.09 654.44,662.39 654.44,662.39              654.44,662.39 642.75,656.72 642.75,656.72              642.75,656.72 626.17,650.20 626.17,650.20              626.17,650.20 619.70,646.78 619.70,646.78              619.70,646.78 613.44,644.70 613.44,644.70              611.32,643.64 608.58,641.43 606.09,641.77              604.49,641.99 601.38,644.46 599.91,645.48              599.91,645.48 583.50,657.42 583.50,657.42              569.89,666.80 555.08,674.77 540.09,681.72              535.58,683.80 525.45,688.71 520.88,689.00              520.88,689.00 520.88,700.83 520.88,700.83              520.88,700.83 518.95,707.04 518.95,707.04              518.95,707.04 518.95,713.83 518.95,713.83              518.95,713.83 517.26,719.09 517.26,719.09              517.26,719.09 515.87,739.00 515.87,739.00              515.87,739.00 514.26,746.00 514.26,746.00              513.27,752.03 513.98,766.25 511.60,771.20              509.49,775.60 507.66,776.10 504.56,779.29              496.55,787.52 494.51,792.98 482.00,793.00              482.00,793.00 363.00,793.00 363.00,793.00              351.49,792.98 349.39,788.67 341.71,781.00              338.65,777.95 335.30,775.21 333.41,771.25              331.01,766.20 331.74,752.11 330.74,746.00              330.74,746.00 329.26,740.00 329.26,740.00              329.26,740.00 328.74,732.09 328.74,732.09              328.74,732.09 327.11,725.91 327.11,725.91              327.11,725.91 325.87,707.04 325.87,707.04              325.87,707.04 324.12,700.83 324.12,700.83              324.12,700.83 324.12,689.00 324.12,689.00              318.86,688.67 302.59,680.92 297.53,678.07              297.53,678.07 290.65,674.97 290.65,674.97              290.65,674.97 262.00,657.97 262.00,657.97              262.00,657.97 246.53,646.94 246.53,646.94              244.58,645.30 240.50,641.59 238.00,641.54              235.60,641.50 233.54,643.47 231.54,644.53              231.54,644.53 219.71,649.74 219.71,649.74              219.71,649.74 210.04,653.30 210.04,653.30              210.04,653.30 191.39,661.99 191.39,661.99              191.39,661.99 184.28,664.60 184.28,664.60              178.98,667.09 164.46,673.77 159.00,673.77              159.00,673.77 149.00,671.42 149.00,671.42              144.73,670.72 134.73,668.33 131.47,665.91              128.21,663.48 125.91,657.91 123.71,654.39              123.71,654.39 117.93,643.47 117.93,643.47              117.93,643.47 108.22,627.41 108.22,627.41              108.22,627.41 105.20,621.28 105.20,621.28              105.20,621.28 78.42,575.92 78.42,575.92              78.42,575.92 74.12,567.37 74.12,567.37              71.24,562.80 62.54,550.11 63.25,545.15              63.83,541.09 69.45,520.49 71.41,517.52              74.11,513.45 79.66,511.01 83.35,508.03              83.35,508.03 88.51,503.62 88.51,503.62              88.51,503.62 93.54,500.79 93.54,500.79              93.54,500.79 98.74,496.17 98.74,496.17              98.74,496.17 114.50,484.83 114.50,484.83              114.50,484.83 120.46,479.63 120.46,479.63              120.46,479.63 125.75,476.26 125.75,476.26              130.95,472.21 132.86,469.50 140.00,468.00              140.00,468.00 138.24,459.83 138.24,459.83              138.24,459.83 136.00,434.00 136.00,434.00              136.00,434.00 136.00,401.00 136.00,401.00              136.00,401.00 138.24,375.17 138.24,375.17              138.24,375.17 140.00,367.00 140.00,367.00              132.86,365.50 130.95,362.79 125.75,358.74              125.75,358.74 120.46,355.37 120.46,355.37              120.46,355.37 114.50,350.17 114.50,350.17              114.50,350.17 99.50,339.49 99.50,339.49              99.50,339.49 93.54,334.21 93.54,334.21              93.54,334.21 88.51,331.38 88.51,331.38              88.51,331.38 83.35,326.97 83.35,326.97              79.66,323.99 74.11,321.55 71.41,317.48              69.57,314.70 65.76,300.81 65.11,297.01              64.56,293.76 62.77,290.22 63.25,287.15              63.99,282.45 72.03,271.51 74.60,266.81              74.60,266.81 76.99,261.59 76.99,261.59              76.99,261.59 87.72,243.85 87.72,243.85              87.72,243.85 105.20,213.72 105.20,213.72              105.20,213.72 108.94,205.92 108.94,205.92              108.94,205.92 117.93,191.53 117.93,191.53              117.93,191.53 123.40,181.44 123.40,181.44              125.59,177.69 128.03,171.65 131.47,169.09              134.73,166.67 144.73,164.28 149.00,163.58              149.00,163.58 159.00,161.23 159.00,161.23              164.46,161.23 178.98,167.91 184.28,170.40              184.28,170.40 191.39,173.01 191.39,173.01              191.39,173.01 218.83,184.93 218.83,184.93              218.83,184.93 231.54,190.47 231.54,190.47              233.85,191.69 236.00,193.92 238.86,193.36              241.13,192.92 246.04,188.38 248.00,186.77              248.00,186.77 262.00,177.03 262.00,177.03              270.89,170.55 280.97,165.20 290.65,160.03              290.65,160.03 297.53,156.93 297.53,156.93              302.59,154.08 318.86,146.33 324.12,146.00 Z            M 421.25,328.47            C 421.25,328.47 396.17,332.95 396.17,332.95              386.70,335.90 375.53,341.35 367.90,347.79              367.90,347.79 359.29,356.42 359.29,356.42              359.29,356.42 351.61,364.37 351.61,364.37              351.61,364.37 341.68,380.46 341.68,380.46              341.68,380.46 339.35,387.71 339.35,387.71              339.35,387.71 336.22,396.17 336.22,396.17              336.22,396.17 334.95,409.99 334.95,409.99              334.60,414.68 332.89,415.45 333.47,418.75              333.47,418.75 334.87,424.04 334.87,424.04              334.87,424.04 336.42,439.71 336.42,439.71              336.42,439.71 339.70,448.17 339.70,448.17              339.70,448.17 341.68,454.54 341.68,454.54              346.10,464.76 353.69,472.97 361.42,480.71              361.42,480.71 368.66,487.83 368.66,487.83              376.53,493.89 387.50,499.82 397.09,502.31              397.09,502.31 410.00,505.07 410.00,505.07              410.00,505.07 416.91,505.07 416.91,505.07              416.91,505.07 421.25,506.53 421.25,506.53              424.11,507.03 425.42,505.74 428.09,505.07              428.09,505.07 435.00,505.07 435.00,505.07              435.00,505.07 442.00,503.22 442.00,503.22              461.92,499.08 472.29,492.24 486.42,477.85              492.32,471.84 497.76,465.22 501.45,457.57              501.45,457.57 503.71,451.29 503.71,451.29              503.71,451.29 506.93,443.83 506.93,443.83              506.93,443.83 508.25,436.09 508.25,436.09              508.25,436.09 510.01,430.83 510.01,430.83              510.01,430.83 510.01,423.09 510.01,423.09              510.74,420.42 512.03,419.11 511.53,416.25              511.53,416.25 510.01,411.91 510.01,411.91              510.01,411.91 510.01,404.17 510.01,404.17              510.01,404.17 508.25,398.91 508.25,398.91              508.25,398.91 506.93,391.17 506.93,391.17              506.93,391.17 501.45,377.43 501.45,377.43              497.76,369.78 492.32,363.16 486.42,357.15              486.42,357.15 477.11,347.93 477.11,347.93              463.99,336.91 446.83,331.18 430.01,329.95              425.87,329.64 425.46,328.27 421.25,328.47 Z" />
  <path
     style="fill:#000000;stroke-width:1.54844"
     d="m 474.91719,1054.9371 c -3.8304,-0.7332 -21.63034,-16.6342 -26.89107,-24.0223 -2.48466,-3.4894 -3.52878,-8.2957 -4.57384,-21.0548 -0.7448,-9.0932 -2.02824,-21.06237 -2.85208,-26.59806 -2.16358,-14.53803 -6.10739,-49.06291 -6.60756,-57.84403 -0.42315,-7.42874 -0.51251,-7.54724 -7.39632,-9.80803 -20.34443,-6.68153 -65.223,-31.44557 -91.1737,-50.30972 -8.3526,-6.0717 -16.1035,-10.55907 -18.23836,-10.55907 -2.04196,0 -7.69939,1.97174 -12.57206,4.38166 -4.87266,2.40992 -11.29819,5.29912 -14.27895,6.42044 -2.98075,1.12134 -13.78115,5.68401 -24.00088,10.13929 -34.53025,15.05343 -45.68177,19.51344 -50.72171,20.28602 -5.6261,0.86243 -33.75492,-5.84752 -39.04551,-9.31404 -1.8622,-1.22018 -6.06773,-7.33204 -9.34562,-13.58193 -3.27789,-6.24989 -10.53885,-19.16474 -16.13546,-28.69965 -10.88399,-18.54297 -44.61598,-76.80606 -56.303072,-97.24865 -3.8951,-6.81315 -7.536364,-14.235 -8.091698,-16.493 -0.962444,-3.91331 4.940107,-29.18326 8.790564,-37.6341 1.400204,-3.0731 9.315806,-9.6698 25.152926,-20.96187 1.7835,-1.27168 11.5184,-8.58808 21.63311,-16.25866 31.08031,-23.57011 40.75537,-30.20522 44.04409,-30.20522 1.69228,0 1.95175,-1.18425 1.10262,-5.03245 -5.22049,-23.65883 -5.22049,-104.0878 0,-127.74663 0.84913,-3.84819 0.58966,-5.03244 -1.10262,-5.03244 -3.3078,0 -13.30619,-6.86422 -43.98142,-30.19466 -10.07779,-7.6648 -19.81927,-14.98119 -21.64771,-16.25866 -14.33002,-10.01182 -23.803688,-17.90568 -25.22015,-21.01447 -2.254916,-4.94902 -9.522068,-32.44207 -9.522068,-36.02386 0,-1.57117 3.309799,-8.3801 7.355109,-15.13094 4.04531,-6.75085 8.152799,-14.00425 9.127759,-16.1187 0.97495,-2.11445 7.24615,-12.93511 13.93599,-24.04594 6.68985,-11.11082 15.29895,-25.95874 19.13135,-32.99538 3.8324,-7.03664 11.19425,-19.89515 16.35966,-28.57449 5.16542,-8.67934 12.07797,-20.89416 15.36124,-27.14405 3.28327,-6.24989 7.4932,-12.36176 9.3554,-13.58193 5.29059,-3.46652 33.41941,-10.17647 39.04551,-9.31405 2.76225,0.42343 11.12385,3.33715 18.58133,6.47495 41.75095,17.567 65.47619,27.81281 71.96134,31.07668 9.87183,4.96832 14.19183,4.65862 21.8562,-1.56687 22.09192,-17.94447 76.07866,-48.51041 97.81257,-55.37904 l 7.74222,-2.4468 0.42832,-7.56396 c 0.4985,-8.80348 4.43463,-43.28756 6.60756,-57.88839 0.82384,-5.53569 2.10728,-17.50484 2.85208,-26.59811 1.55425,-18.975568 2.29531,-20.433087 17.73009,-34.871563 6.19782,-5.797752 11.8292,-9.673717 14.96659,-10.301197 8.75735,-1.75147 171.2218,-1.174893 176.03227,0.624728 5.34217,1.998526 26.52022,22.508821 28.54681,27.6467 0.80878,2.050457 2.09035,10.760454 2.84794,19.355552 2.79672,31.72986 6.31917,62.23741 7.81442,67.67997 0.84606,3.07956 1.53829,9.43786 1.53829,14.12955 0,8.3759 0.0906,8.54847 5.00576,9.5315 2.75318,0.55063 11.98578,4.24246 20.51689,8.20407 29.30035,13.60622 51.90619,27.09229 76.51846,45.6489 5.44978,4.10892 11.00874,7.47075 12.35324,7.47075 3.10469,0 29.84539,-10.77655 67.54782,-27.22189 16.18124,-7.05808 31.90629,-13.28102 34.94456,-13.8288 3.66255,-0.66032 10.96786,0.33726 21.67821,2.96028 13.05703,3.19776 16.84567,4.77918 19.76123,8.24866 3.91332,4.65679 59.91674,100.46894 74.91584,128.16794 5.0728,9.36809 10.665,18.58461 12.427,20.48118 l 3.2036,3.44831 -5.1769,19.77835 c -5.7364,21.91562 -6.3054,22.75218 -24.5087,36.03703 -5.2513,3.8324 -13.66623,10.1036 -18.69982,13.93599 -5.03361,3.8324 -14.51608,10.8004 -21.07217,15.48444 -6.55611,4.68405 -14.22615,10.71183 -17.04455,13.39508 -2.8184,2.68324 -7.62257,5.70311 -10.67593,6.7108 l -5.55157,1.83219 1.19115,10.32208 c 0.65513,5.67714 1.19114,31.92286 1.19114,58.32383 0,26.40097 -0.53601,52.64669 -1.19114,58.32383 l -1.19115,10.32208 5.55157,1.83218 c 3.05336,1.0077 7.85272,4.02757 10.66525,6.7108 2.81252,2.68326 14.63029,11.84664 26.2617,20.36308 38.95092,28.51957 47.38152,35.0261 48.78442,37.65059 0.7671,1.43492 3.6663,11.155 6.4428,21.60017 l 5.0482,18.99122 -3.2158,3.46122 c -1.7687,1.90367 -7.3663,11.12602 -12.4391,20.49411 -15.01,27.71911 -71.00431,123.51352 -74.91584,128.16503 -2.88512,3.43093 -6.70651,5.05445 -19.09157,8.11103 -8.51644,2.10183 -17.13849,3.82973 -19.16012,3.8398 -3.31819,0.0166 -18.76641,-6.11965 -62.13319,-24.67994 -8.09062,-3.46264 -16.80062,-7.28603 -19.35555,-8.49639 -11.51736,-5.45614 -20.0071,-8.60871 -23.03639,-8.55427 -1.80793,0.0325 -10.95196,5.57477 -20.32004,12.31619 -9.36809,6.74141 -22.36639,15.43256 -28.88511,19.31366 -17.14478,10.20759 -51.08165,26.80905 -59.29274,29.00518 l -7.05146,1.88597 v 8.40275 c 0,4.62151 -0.69223,10.92239 -1.53829,14.00195 -1.49525,5.44256 -5.0177,35.95012 -7.81442,67.67994 -0.75759,8.5951 -2.03916,17.3051 -2.84794,19.3556 -2.02659,5.1379 -23.20464,25.6482 -28.54681,27.6467 -4.24184,1.5869 -169.16672,2.0791 -177.26404,0.529 z M 592.27983,671.79331 c 18.83146,-4.60208 33.19033,-11.92402 47.23978,-24.08872 21.8539,-18.92219 32.70154,-36.72079 40.27663,-66.08515 7.5125,-29.12163 -0.78315,-69.26626 -19.45475,-94.14621 -22.32315,-29.74563 -46.04805,-43.34307 -85.92389,-49.24555 -11.04663,-1.63513 -14.50291,-1.47293 -30.80498,1.44573 -29.63085,5.305 -44.53154,13.07314 -64.50436,33.62787 -21.09594,21.71059 -30.27408,40.44958 -33.90991,69.2337 -2.9993,23.74507 2.20318,51.60348 13.6194,72.92956 2.33424,4.36047 11.65855,15.28936 21.19989,24.84809 13.76712,13.7922 19.26243,18.15916 28.66128,22.77628 26.7894,13.16008 53.84262,15.97683 83.60091,8.7044 z"
     id="path308"
     transform="scale(0.75000137)" />
  <path
     style="fill:#000000;stroke-width:1.54844"
     d="m 465.77493,1047.0107 c -12.5468,-10.446 -18.74947,-17.927 -19.76911,-23.8432 -0.48017,-2.7861 -1.87681,-14.124 -3.10364,-25.19534 -5.7673,-52.04616 -8.76696,-77.57099 -9.3083,-79.20661 -0.32483,-0.98144 -4.64516,-3.29328 -9.60074,-5.13743 -16.28884,-6.06168 -51.9217,-25.45705 -77.74455,-42.31729 -15.4171,-10.06611 -26.92384,-16.56974 -29.31649,-16.56974 -2.1662,0 -22.53327,7.95206 -45.26017,17.67128 -58.92865,25.20092 -54.35036,23.87335 -70.73534,20.51112 -25.42121,-5.21649 -22.36022,-2.03274 -52.49947,-54.60524 -14.59539,-25.45904 -33.9586,-59.1663 -43.02938,-74.90504 -9.070768,-15.73875 -16.912997,-30.29205 -17.427171,-32.34069 -1.443732,-5.75228 6.472259,-35.54885 10.665387,-40.14556 4.943784,-5.41964 78.256704,-60.15698 84.636154,-63.19157 5.18546,-2.46664 5.20549,-2.51797 4.07984,-10.45074 -3.19594,-22.52263 -3.24661,-96.90915 -0.0821,-120.47272 l 1.17579,-8.75505 -5.19231,-2.46992 c -6.25864,-2.97716 -79.65025,-57.73442 -84.454406,-63.01119 -4.23289,-4.64929 -12.324761,-34.55718 -10.852178,-40.1101 0.564621,-2.12911 6.823768,-13.97471 13.909214,-26.32355 7.08545,-12.34884 26.43338,-46.0749 42.99541,-74.9468 34.18836,-59.59916 30.43019,-55.52515 56.07519,-60.78757 16.45358,-3.37631 12.42318,-4.54371 70.91775,20.54136 22.6249,9.70257 43.2472,17.64104 45.82734,17.64104 3.28081,0 8.60361,-2.82971 17.70469,-9.41216 24.83282,-17.96057 70.42774,-43.2973 90.54886,-50.31727 l 7.85535,-2.74061 3.51429,-31.08985 c 1.93286,-17.09942 4.48314,-39.79985 5.66729,-50.4454 1.18415,-10.64556 2.54347,-21.613112 3.0207,-24.372351 0.98467,-5.693087 13.91342,-20.538311 23.93566,-27.483732 l 6.3268,-4.384474 86.67696,0.133423 c 99.88817,0.153761 89.48559,-1.518967 107.176,17.233814 11.29649,11.974865 10.46456,9.221018 14.31623,47.38976 2.13043,21.1118 5.62618,49.47778 8.28949,67.26413 0.93534,6.24639 1.52297,7.00127 6.42872,8.25819 7.73737,1.98241 41.45974,18.32035 57.10844,27.66809 7.32904,4.37801 21.08684,13.43615 30.57291,20.12922 10.6699,7.52833 18.75827,12.16922 21.20915,12.16922 3.83528,0 21.50032,-6.93931 72.79223,-28.59475 13.49475,-5.69748 26.85298,-10.73506 29.68496,-11.19464 5.77995,-0.93796 26.69317,3.22499 34.51573,6.87063 5.61856,2.6185 20.18599,26.12222 66.83499,107.83435 12.9148,22.6222 24.7253,42.66725 26.2455,44.54457 2.6657,3.29206 2.6306,3.91232 -0.9877,17.46321 -7.0571,26.42922 -7.1752,26.57604 -42.43598,52.76102 -17.20239,12.77466 -34.12586,25.59685 -37.6077,28.49374 -3.48185,2.89689 -9.15681,6.52788 -12.61103,8.06886 l -6.28041,2.8018 1.16844,10.51245 c 1.49512,13.45144 1.4953,101.38101 2.5e-4,116.30541 l -1.13577,11.33788 5.40638,2.25891 c 2.9735,1.24241 7.80607,4.15358 10.73906,6.46925 2.93299,2.31567 21.08728,16.05591 40.3429,30.53386 l 35.01026,26.32355 5.5686,20.12977 5.5685,20.12977 -3.4424,4.64533 c -1.8934,2.55494 -13.3624,22.06533 -25.4866,43.35644 -34.98008,61.42753 -61.40227,105.13718 -64.78049,107.16489 -4.2253,2.53618 -26.75069,8.19418 -32.62228,8.19418 -6.04511,0 -15.41188,-3.56854 -62.45937,-23.79574 -21.0617,-9.05508 -40.2411,-16.4638 -42.62087,-16.4638 -2.93379,0 -12.89503,5.70303 -30.93946,17.71352 -25.40196,16.90769 -64.49829,37.79804 -78.4471,41.91664 -5.90269,1.74285 -6.40524,2.33546 -7.35251,8.67005 -2.66179,17.7999 -6.15203,46.13245 -8.27684,67.18864 -3.79285,37.58586 -3.19555,35.46666 -12.98093,46.05756 -4.79025,5.1846 -11.4271,11.4012 -14.74854,13.8147 l -6.03899,4.3882 h -87.94859 -87.9486 z M 594.49036,671.9736 c 40.26314,-10.60241 70.10099,-39.79819 83.82014,-82.01644 5.79257,-17.82562 6.15557,-43.64543 0.89139,-63.40238 -10.22264,-38.36646 -37.91432,-69.46126 -72.46795,-81.37377 -14.23164,-4.90643 -32.54449,-8.5198 -43.17892,-8.5198 -10.61438,0 -36.61343,5.13795 -47.28603,9.3447 -18.81028,7.41431 -41.51617,27.16854 -54.66984,47.56298 -21.16703,32.81898 -23.65331,78.08923 -6.36646,115.9208 4.02379,8.80589 8.35999,14.45898 21.61245,28.17612 9.11831,9.43803 19.85164,19.26026 23.85185,21.82717 8.96208,5.75096 25.56509,12.13411 38.93574,14.96914 13.45115,2.85211 38.97298,1.69435 54.85763,-2.48852 z"
     id="path347"
     transform="scale(0.75000137)" />
</svg>
